:SAMPLES-PER-SECOND 30
:FULLY-SPECIFIED
:DEGREES
1578
root  9.88851 38.9746 2.58285 -7.67651 -85.0133 0.147975
RightUpLeg  2.03356 -11.355 -2.49097
RightLeg  20.2403 1.33933 1.45879
RightFoot  -13.4849 -0.146226 -2.94982
RightToes  5.82063e-011 0 -3.6325e-017
Spine  9.17497 -2.76595 12.1887
Spine1  9.94265 -1.85787 0.210211
HEad  -12.1098 2.24228 -9.0571
LeftShoulder1  0.196916 2.88371 -25.5387
LeftArm  -18.8631 2.6703 -37.702
LeftForeArm  86.2765 -78.449 -107.442
LeftHand  -0.0892399 -0.11232 1.90999
RightShoulder  -0.265444 -4.35913 23.758
RightArm  -15.7756 -6.97986 34.2406
RightForeArm  113.989 66.7977 150.95
RightHand  -0.129719 -1.33788 -3.54931
LeftUpLeg  -29.0298 8.26785 2.92661
LeftLeg  48.2442 -5.96902 -6.72759
LeftFoot  -5.63609 0.323019 -5.81028
LeftToes  1.54581e-011 7.46816e-011 -4.69922e-011
1579
root  8.93762 38.9428 2.5596 -1.48328 -85.4161 -5.92856
RightUpLeg  3.89942 -10.9684 -2.0533
RightLeg  19.4117 1.30455 1.54109
RightFoot  -14.5483 -0.176928 -2.81467
RightToes  5.82063e-011 0 -3.6325e-017
Spine  8.85284 -2.62197 12.3963
Spine1  9.5938 -1.83241 0.161689
HEad  -12.28 2.76712 -9.45282
LeftShoulder1  0.194049 2.88433 -25.0697
LeftArm  -18.9161 2.8759 -38.0094
LeftForeArm  86.2795 -78.497 -106.984
LeftHand  -0.0529686 -0.104396 1.1461
RightShoulder  -0.315603 -4.51445 24.1191
RightArm  -15.3765 -6.73071 33.9796
RightForeArm  113.804 67.0284 150.616
RightHand  -0.12251 -1.46327 -3.43795
LeftUpLeg  -27.9796 7.32798 3.13381
LeftLeg  38.8188 -6.61058 -5.33558
LeftFoot  -4.64397 0.399669 -6.31847
LeftToes  1.54581e-011 7.46816e-011 -4.69922e-011
1580
root  7.97839 38.8826 2.5894 10.8435 -86.0404 -17.9785
RightUpLeg  5.66543 -10.3368 -1.28941
RightLeg  18.3159 1.36087 1.60836
RightFoot  -15.5092 -0.201394 -2.64328
RightToes  5.82063e-011 0 -3.6325e-017
Spine  8.0448 -2.45496 12.8281
Spine1  9.81515 -1.83163 0.189007
HEad  -12.3405 2.60713 -9.33679
LeftShoulder1  0.142395 3.04817 -25.0075
LeftArm  -18.8854 2.98022 -37.9409
LeftForeArm  85.6517 -78.5112 -106.576
LeftHand  -0.0761899 0.161939 1.68297
RightShoulder  -0.259323 -4.33135 24.0502
RightArm  -14.9588 -6.60523 34.0321
RightForeArm  113.444 67.2782 150.232
RightHand  -0.112404 -2.00689 -3.53891
LeftUpLeg  -26.4612 6.36191 3.85072
LeftLeg  28.868 -7.02345 -3.83074
LeftFoot  -2.41796 0.583522 -7.2972
LeftToes  1.54581e-011 7.46816e-011 -4.69922e-011
1581
root  6.97824 38.792 2.64235 25.8138 -86.2545 -32.6289
RightUpLeg  7.5104 -9.8306 -0.556891
RightLeg  17.1798 1.40326 1.72379
RightFoot  -16.398 -0.226585 -2.63152
RightToes  5.82063e-011 0 -3.6325e-017
Spine  6.92753 -2.24864 12.9642
Spine1  10.4372 -1.91444 0.640178
HEad  -12.2277 2.90492 -9.76682
LeftShoulder1  0.203202 2.85322 -24.9819
LeftArm  -18.9082 3.00366 -37.7978
LeftForeArm  85.3005 -78.5632 -105.906
LeftHand  -0.0526281 0.401938 1.19278
RightShoulder  -0.255071 -4.32355 23.8125
RightArm  -14.6037 -6.69848 34.1711
RightForeArm  113.045 67.4995 149.876
RightHand  -0.125144 -1.55661 -3.58246
LeftUpLeg  -24.8534 5.40523 4.71245
LeftLeg  19.9771 -7.55915 -2.74215
LeftFoot  -0.0863487 0.777458 -7.86045
LeftToes  1.54581e-011 7.46816e-011 -4.69922e-011
1582
root  5.95113 38.6454 2.70541 41.1801 -86.1089 -48.0018
RightUpLeg  9.84075 -9.34397 0.157488
RightLeg  15.9381 1.38574 1.77086
RightFoot  -17.5106 -0.24277 -2.30245
RightToes  5.82063e-011 0 -3.6325e-017
Spine  6.76845 -2.32726 12.6505
Spine1  10.277 -2.25444 1.41036
HEad  -12.4477 4.09416 -9.89304
LeftShoulder1  0.198624 2.8658 -24.8561
LeftArm  -19.0041 3.40539 -37.6313
LeftForeArm  85.8899 -78.5289 -106.506
LeftHand  -0.0633898 0.679509 1.48065
RightShoulder  -0.226959 -4.23234 23.7323
RightArm  -14.0119 -6.86105 34.295
RightForeArm  112.68 67.8251 149.362
RightHand  -0.125862 -1.58262 -3.63243
LeftUpLeg  -22.9573 4.86616 5.53203
LeftLeg  12.8424 -7.13191 -1.55108
LeftFoot  2.06647 0.933995 -8.06118
LeftToes  1.54581e-011 7.46816e-011 -4.69922e-011
1583
root  4.87617 38.4423 2.75355 58.9852 -85.9576 -65.7492
RightUpLeg  11.9766 -8.90339 0.835438
RightLeg  15.1066 1.8077 1.7489
RightFoot  -18.7888 -0.276332 -2.28877
RightToes  5.82063e-011 0 -3.6325e-017
Spine  6.49752 -2.26815 12.0282
Spine1  10.4673 -2.40454 2.12236
HEad  -12.4778 4.68414 -9.22806
LeftShoulder1  0.192265 2.86749 -23.948
LeftArm  -19.1084 3.42291 -37.8757
LeftForeArm  85.0605 -78.5459 -105.975
LeftHand  -0.0807315 0.349798 1.83813
RightShoulder  -0.258629 -4.32539 24.1865
RightArm  -13.127 -6.88918 34.105
RightForeArm  111.811 68.18 148.735
RightHand  -0.13508 -1.66104 -4.02969
LeftUpLeg  -21.6874 4.66197 6.50193
LeftLeg  9.54258 -6.62657 -0.922148
LeftFoot  3.36434 0.785237 -6.2374
LeftToes  1.54581e-011 7.46816e-011 -4.69922e-011
1584
root  3.74637 38.1571 2.82222 74.2676 -85.4854 -80.8626
RightUpLeg  13.703 -8.65735 1.39135
RightLeg  15.1077 2.34239 1.64812
RightFoot  -20.5686 -0.309206 -2.11595
RightToes  5.82063e-011 0 -3.6325e-017
Spine  6.3556 -2.20229 10.8346
Spine1  10.4301 -2.65871 3.31226
HEad  -12.4128 6.00735 -8.57126
LeftShoulder1  0.215986 2.78135 -23.6133
LeftArm  -19.0625 3.36904 -37.6957
LeftForeArm  84.6475 -78.6123 -105.108
LeftHand  -0.0621599 0.317236 1.39503
RightShoulder  -0.271467 -4.36752 24.1605
RightArm  -12.2026 -7.5634 34.4183
RightForeArm  111.945 68.5602 148.152
RightHand  -0.147274 -0.749267 -3.60543
LeftUpLeg  -21.602 4.05898 7.5881
LeftLeg  11.0985 -5.03189 -0.68899
LeftFoot  5.35275 0.534052 -3.87941
LeftToes  1.54581e-011 7.46816e-011 -4.69922e-011
1585
root  2.67636 37.9182 2.90385 93.9147 -84.9969 -99.9024
RightUpLeg  14.4254 -8.14768 1.69867
RightLeg  15.7872 3.29601 1.42861
RightFoot  -22.0872 -0.284122 -1.42163
RightToes  5.82063e-011 0 -3.6325e-017
Spine  7.00525 -2.0868 8.85316
Spine1  9.47399 -2.88162 4.5351
HEad  -12.2007 7.33824 -7.8634
LeftShoulder1  0.131078 3.07117 -23.972
LeftArm  -18.7361 3.4307 -36.734
LeftForeArm  82.887 -78.6816 -103.539
LeftHand  -0.0552914 0.504377 1.27426
RightShoulder  -0.198955 -4.13765 23.8261
RightArm  -10.6783 -8.81808 34.6576
RightForeArm  110.728 68.8843 147.492
RightHand  -0.187965 -0.858708 -4.75899
LeftUpLeg  -22.4311 4.75637 8.2378
LeftLeg  14.7495 -4.13094 -0.925907
LeftFoot  8.99246 0.186475 -1.38209
LeftToes  1.54581e-011 7.46816e-011 -4.69922e-011
1586
root  1.6931 37.7994 3.03696 118.122 -85.094 -123.464
RightUpLeg  14.0101 -7.01673 0.708581
RightLeg  18.1569 4.02173 1.17781
RightFoot  -23.0615 -0.134115 0.157119
RightToes  5.82063e-011 0 -3.6325e-017
Spine  8.47187 -1.896 5.6808
Spine1  8.40747 -2.90285 5.01968
HEad  -12.5277 8.8319 -7.28641
LeftShoulder1  0.118919 3.10774 -23.7202
LeftArm  -18.781 4.17726 -36.788
LeftForeArm  81.5283 -78.7906 -101.586
LeftHand  -0.0633543 0.903143 1.51687
RightShoulder  -0.227155 -4.21919 24.2851
RightArm  -9.02533 -9.53059 34.5478
RightForeArm  110.232 69.6764 146.068
RightHand  -0.199611 -0.0554666 -4.35344
LeftUpLeg  -23.5235 7.21241 7.32764
LeftLeg  18.6298 -4.58845 -1.40128
LeftFoot  9.93852 -0.343871 1.5227
LeftToes  1.54581e-011 7.46816e-011 -4.69922e-011
1587
root  0.801294 37.6673 3.13803 136.007 -85.2758 -140.908
RightUpLeg  11.7761 -5.35949 -0.480183
RightLeg  24.3371 3.2199 1.41339
RightFoot  -23.5679 0.29067 4.17468
RightToes  5.82063e-011 0 -3.6325e-017
Spine  11.1423 -1.87218 1.09013
Spine1  6.98967 -3.60453 7.02613
HEad  -14.2179 10.4533 -6.56577
LeftShoulder1  0.122228 3.09839 -23.8796
LeftArm  -18.8025 4.79613 -36.5812
LeftForeArm  78.1484 -78.933 -97.732
LeftHand  -0.0186357 0.829346 0.367231
RightShoulder  -0.287243 -4.39536 25.0141
RightArm  -7.53038 -10.1874 34.8414
RightForeArm  109.606 70.7304 143.985
RightHand  -0.227444 0.48452 -4.57989
LeftUpLeg  -24.6044 7.71647 6.40777
LeftLeg  23.1605 -3.84957 -1.47042
LeftFoot  6.13251 -0.200939 1.06732
LeftToes  1.54581e-011 7.46816e-011 -4.69922e-011
1588
root  0.0517327 37.683 3.29298 155.915 -85.4526 -159.702
RightUpLeg  6.30317 -6.71355 -3.3515
RightLeg  34.536 3.85137 2.57997
RightFoot  -20.5178 0.56413 9.6062
RightToes  5.82063e-011 0 -3.6325e-017
Spine  13.3856 -1.84519 -3.26567
Spine1  6.54097 -4.26149 7.68053
HEad  -17.1086 11.6933 -6.30234
LeftShoulder1  0.230433 2.73099 -23.4951
LeftArm  -18.4809 4.83057 -36.6143
LeftForeArm  72.4366 -79.0508 -91.4743
LeftHand  -0.0244969 0.539203 0.524567
RightShoulder  -0.295198 -4.40864 25.4288
RightArm  -6.63707 -11.2513 35.3557
RightForeArm  107.369 71.9071 141.15
RightHand  -0.250203 1.20311 -4.49642
LeftUpLeg  -25.0687 7.02652 4.82572
LeftLeg  24.4769 -2.42816 -0.877332
LeftFoot  4.15294 -0.160798 0.999204
LeftToes  1.54581e-011 7.46816e-011 -4.69922e-011
